<?xml version="1.0" encoding="UTF-8" standalone="no"?>
<!-- Created with Inkscape (http://www.inkscape.org/) -->

<svg
   xmlns:dc="http://purl.org/dc/elements/1.1/"
   xmlns:cc="http://creativecommons.org/ns#"
   xmlns:rdf="http://www.w3.org/1999/02/22-rdf-syntax-ns#"
   xmlns:svg="http://www.w3.org/2000/svg"
   xmlns="http://www.w3.org/2000/svg"
   xmlns:sodipodi="http://sodipodi.sourceforge.net/DTD/sodipodi-0.dtd"
   xmlns:inkscape="http://www.inkscape.org/namespaces/inkscape"
   width="640"
   height="200"
   id="svg2"
   version="1.1"
   inkscape:version="0.48.5 r10040"
   sodipodi:docname="drawing.svg">
  <defs
     id="defs4" />
  <sodipodi:namedview
     id="base"
     pagecolor="#ffffff"
     bordercolor="#666666"
     borderopacity="1.0"
     inkscape:pageopacity="0.0"
     inkscape:pageshadow="2"
     inkscape:zoom="0.98994949"
     inkscape:cx="329.91901"
     inkscape:cy="74.280099"
     inkscape:document-units="px"
     inkscape:current-layer="layer1"
     showgrid="false"
     inkscape:window-width="1366"
     inkscape:window-height="745"
     inkscape:window-x="-8"
     inkscape:window-y="-8"
     inkscape:window-maximized="1" />
  <metadata
     id="metadata7">
    <rdf:RDF>
      <cc:Work
         rdf:about="">
        <dc:format>image/svg+xml</dc:format>
        <dc:type
           rdf:resource="http://purl.org/dc/dcmitype/StillImage" />
        <dc:title></dc:title>
      </cc:Work>
    </rdf:RDF>
  </metadata>
  <g
     inkscape:label="Layer 1"
     inkscape:groupmode="layer"
     id="layer1"
     transform="translate(0,-852.36214)">
    <g
       id="g3996"
       transform="matrix(0.79533813,0,0,0.79533813,-46.857338,822.02546)">
      <rect
         ry="5"
         rx="5"
         y="70.933617"
         x="84.999992"
         height="191.42857"
         width="191.42857"
         id="rect3753"
         style="fill:none;stroke:#353535;stroke-width:6;stroke-linecap:round;stroke-linejoin:round;stroke-miterlimit:4;stroke-opacity:1;stroke-dasharray:none" />
      <path
         inkscape:connector-curvature="0"
         id="path3755"
         d="m 140.06181,122.12503 c -22.84869,17.89336 -31.25551,46.63207 -21.93061,69.15554 -0.21486,0.15047 -0.4116,0.32233 -0.62057,0.48598 -6.33744,4.963 -7.46565,14.11751 -2.50265,20.45496 4.96301,6.33743 14.13385,7.45285 20.47129,2.48986 0.52646,-0.41229 1.00805,-0.86305 1.4619,-1.32928 19.57755,12.11377 47.55933,10.07301 69.20173,-6.87568 21.67824,-16.97674 30.3638,-43.71226 23.23214,-65.64323 0.78124,-0.40782 1.54131,-0.89088 2.26014,-1.45382 6.33744,-4.963 7.45286,-14.13385 2.48987,-20.47128 -4.96301,-6.33745 -14.12107,-7.43653 -20.45849,-2.47353 -0.40719,0.31887 -0.80627,0.64374 -1.17011,0.99538 -19.63071,-14.49196 -49.5661,-13.24378 -72.43463,4.66511 z"
         style="fill:none;stroke:#adef00;stroke-width:6;stroke-linecap:round;stroke-linejoin:round;stroke-miterlimit:4;stroke-opacity:1;stroke-dasharray:none" />
      <g
         transform="translate(-30.714286,17.857143)"
         id="g3980">
        <path
           style="font-size:medium;font-style:normal;font-variant:normal;font-weight:normal;font-stretch:normal;text-indent:0;text-align:start;text-decoration:none;line-height:normal;letter-spacing:normal;word-spacing:normal;text-transform:none;direction:ltr;block-progression:tb;writing-mode:lr-tb;text-anchor:start;baseline-shift:baseline;color:#000000;fill:#adef00;fill-opacity:1;stroke:#ffffff;stroke-width:11.80000019;stroke-miterlimit:4;stroke-opacity:1;stroke-dasharray:none;marker:none;visibility:visible;display:inline;overflow:visible;enable-background:accumulate;font-family:Sans;-inkscape-font-specification:Sans"
           d="m 281.34361,167.43718 a 3.0003,3.0003 0 0 0 -2.28125,1.09375 l -34.09375,39.8125 -14.65625,-15.71875 a 3.0072341,3.0072341 0 1 0 -4.40625,4.09375 l 16.9375,18.15625 2.3125,2.4375 2.1875,-2.53125 36.28125,-42.34375 a 3.0003,3.0003 0 0 0 -2.28125,-5 z"
           id="path3778-7"
           inkscape:connector-curvature="0" />
        <path
           style="font-size:medium;font-style:normal;font-variant:normal;font-weight:normal;font-stretch:normal;text-indent:0;text-align:start;text-decoration:none;line-height:normal;letter-spacing:normal;word-spacing:normal;text-transform:none;direction:ltr;block-progression:tb;writing-mode:lr-tb;text-anchor:start;baseline-shift:baseline;color:#000000;fill:#adef00;fill-opacity:1;stroke:none;stroke-width:0.30000088;marker:none;visibility:visible;display:inline;overflow:visible;enable-background:accumulate;font-family:Sans;-inkscape-font-specification:Sans"
           d="m 281.34375,167.4375 a 3.0003,3.0003 0 0 0 -2.28125,1.09375 L 244.96875,208.34375 230.3125,192.625 a 3.0072341,3.0072341 0 1 0 -4.40625,4.09375 l 16.9375,18.15625 2.3125,2.4375 2.1875,-2.53125 36.28125,-42.34375 a 3.0003,3.0003 0 0 0 -2.28125,-5 z"
           id="path3778"
           inkscape:connector-curvature="0" />
      </g>
    </g>
    <g
       style="font-size:40px;font-style:normal;font-weight:normal;line-height:125%;letter-spacing:0px;word-spacing:0px;fill:#353535;fill-opacity:1;stroke:none;font-family:Sans"
       id="text3984">
      <path
         d="m 226.03554,923.82214 0,-28 -7,0 0,35 35,0 0,-7 z"
         style="font-size:56px;font-variant:normal;font-weight:200;font-stretch:normal;fill:#353535;font-family:'04b08';-inkscape-font-specification:'04b08 Ultra-Light';fill-opacity:1"
         id="path4004" />
      <path
         d="m 275.03554,902.82214 7,0 0,-7 -21,0 0,7 7,0 0,21 -7,0 0,7 21,0 0,-7 -7,0 z"
         style="font-size:56px;font-variant:normal;font-weight:200;font-stretch:normal;fill:#353535;font-family:'04b08';-inkscape-font-specification:'04b08 Ultra-Light';fill-opacity:1"
         id="path4006" />
      <path
         d="m 296.03554,902.82214 0,-7 -7,0 0,35 7,0 0,-21 7,0 0,-7 z m 21,-7 0,7 -7,0 0,7 7,0 0,21 7,0 0,-35 z m -14,21 7,0 0,-7 -7,0 z"
         style="font-size:56px;font-variant:normal;font-weight:200;font-stretch:normal;fill:#353535;font-family:'04b08';-inkscape-font-specification:'04b08 Ultra-Light';fill-opacity:1"
         id="path4008" />
      <path
         d="m 366.03554,902.82214 0,-7 -35,0 0,35 35,0 0,-7 -28,0 0,-7 28,0 0,-7 -28,0 0,-7 z"
         style="font-size:56px;font-variant:normal;font-weight:200;font-stretch:normal;fill:#353535;font-family:'04b08';-inkscape-font-specification:'04b08 Ultra-Light';fill-opacity:1"
         id="path4010" />
      <path
         d="m 408.03554,902.82214 0,-7 -35,0 0,21 28,0 0,7 -28,0 0,7 35,0 0,-21 -28,0 0,-7 z"
         style="font-size:56px;font-variant:normal;font-weight:200;font-stretch:normal;fill:#353535;font-family:'04b08';-inkscape-font-specification:'04b08 Ultra-Light';fill-opacity:1"
         id="path4012" />
      <path
         d="m 443.03554,895.82214 0,28 -21,0 0,-28 -7,0 0,35 35,0 0,-35 z"
         style="font-size:56px;font-variant:normal;font-weight:200;font-stretch:normal;fill:#353535;font-family:'04b08';-inkscape-font-specification:'04b08 Ultra-Light';fill-opacity:1"
         id="path4014" />
      <path
         d="m 457.03554,895.82214 0,35 7,0 0,-14 14,0 0,14 14,0 0,-7 -7,0 0,-7 7,0 0,-21 z m 28,14 -21,0 0,-7 21,0 z"
         style="font-size:56px;font-variant:normal;font-weight:200;font-stretch:normal;fill:#353535;font-family:'04b08';-inkscape-font-specification:'04b08 Ultra-Light';fill-opacity:1"
         id="path4016" />
      <path
         d="m 506.03554,895.82214 -7,0 0,21 7,0 z m 21,0 0,21 7,0 0,-21 z m -21,21 0,7 7,0 0,-7 z m 14,7 7,0 0,-7 -7,0 z m -7,7 7,0 0,-7 -7,0 z"
         style="font-size:56px;font-variant:normal;font-weight:200;font-stretch:normal;fill:#353535;font-family:'04b08';-inkscape-font-specification:'04b08 Ultra-Light';fill-opacity:1"
         id="path4018" />
      <path
         d="m 576.03554,902.82214 0,-7 -35,0 0,35 35,0 0,-7 -28,0 0,-7 28,0 0,-7 -28,0 0,-7 z"
         style="font-size:56px;font-variant:normal;font-weight:200;font-stretch:normal;fill:#353535;font-family:'04b08';-inkscape-font-specification:'04b08 Ultra-Light';fill-opacity:1"
         id="path4020" />
      <path
         d="m 590.03554,895.82214 -7,0 0,14 7,0 z m 21,0 0,14 7,0 0,-14 z m -21,14 0,7 7,0 0,-7 z m 14,7 7,0 0,-7 -7,0 z m -7,14 7,0 0,-14 -7,0 z"
         style="font-size:56px;font-variant:normal;font-weight:200;font-stretch:normal;fill:#353535;font-family:'04b08';-inkscape-font-specification:'04b08 Ultra-Light';fill-opacity:1"
         id="path4022" />
    </g>
    <g
       style="font-size:40px;font-style:normal;font-weight:normal;line-height:125%;letter-spacing:0px;word-spacing:0px;fill:#353535;fill-opacity:1;stroke:none;font-family:Sans"
       id="text3988">
      <path
         d="m 230.9998,960.39355 0,-2.25 -11.25,0 0,11.25 2.25,0 0,-4.5 9,0 0,-2.25 -9,0 0,-2.25 z"
         style="font-size:18px;font-variant:normal;font-weight:200;font-stretch:normal;font-family:'04b08';-inkscape-font-specification:'04b08 Ultra-Light';fill:#353535;fill-opacity:1"
         id="path4025" />
      <path
         d="m 233.2498,958.14355 0,11.25 11.25,0 0,-11.25 z m 9,9 -6.75,0 0,-6.75 6.75,0 z"
         style="font-size:18px;font-variant:normal;font-weight:200;font-stretch:normal;font-family:'04b08';-inkscape-font-specification:'04b08 Ultra-Light';fill:#353535;fill-opacity:1"
         id="path4027" />
      <path
         d="m 246.7498,958.14355 0,11.25 2.25,0 0,-4.5 4.5,0 0,4.5 4.5,0 0,-2.25 -2.25,0 0,-2.25 2.25,0 0,-6.75 z m 9,4.5 -6.75,0 0,-2.25 6.75,0 z"
         style="font-size:18px;font-variant:normal;font-weight:200;font-stretch:normal;font-family:'04b08';-inkscape-font-specification:'04b08 Ultra-Light';fill:#353535;fill-opacity:1"
         id="path4029" />
      <path
         d="m 271.4998,960.39355 0,-2.25 -2.25,0 0,11.25 2.25,0 0,-6.75 2.25,0 0,-2.25 z m 6.75,-2.25 0,2.25 -2.25,0 0,2.25 2.25,0 0,6.75 2.25,0 0,-11.25 z m -4.5,6.75 2.25,0 0,-2.25 -2.25,0 z"
         style="font-size:18px;font-variant:normal;font-weight:200;font-stretch:normal;font-family:'04b08';-inkscape-font-specification:'04b08 Ultra-Light';fill:#353535;fill-opacity:1"
         id="path4031" />
      <path
         d="m 291.7498,969.39355 2.25,0 0,-11.25 -11.25,0 0,11.25 2.25,0 0,-4.5 6.75,0 z m -6.75,-6.75 0,-2.25 6.75,0 0,2.25 z"
         style="font-size:18px;font-variant:normal;font-weight:200;font-stretch:normal;font-family:'04b08';-inkscape-font-specification:'04b08 Ultra-Light';fill:#353535;fill-opacity:1"
         id="path4033" />
      <path
         d="m 307.4998,960.39355 0,-2.25 -11.25,0 0,6.75 9,0 0,2.25 -9,0 0,2.25 11.25,0 0,-6.75 -9,0 0,-2.25 z"
         style="font-size:18px;font-variant:normal;font-weight:200;font-stretch:normal;font-family:'04b08';-inkscape-font-specification:'04b08 Ultra-Light';fill:#353535;fill-opacity:1"
         id="path4035" />
      <path
         d="m 309.7498,958.14355 0,11.25 11.25,0 0,-11.25 z m 9,9 -6.75,0 0,-6.75 6.75,0 z"
         style="font-size:18px;font-variant:normal;font-weight:200;font-stretch:normal;font-family:'04b08';-inkscape-font-specification:'04b08 Ultra-Light';fill:#353535;fill-opacity:1"
         id="path4037" />
      <path
         d="m 334.4998,967.14355 -9,0 0,-6.75 9,0 0,-2.25 -11.25,0 0,11.25 11.25,0 z"
         style="font-size:18px;font-variant:normal;font-weight:200;font-stretch:normal;font-family:'04b08';-inkscape-font-specification:'04b08 Ultra-Light';fill:#353535;fill-opacity:1"
         id="path4039" />
      <path
         d="m 345.7498,958.14355 0,4.5 -6.75,0 0,-4.5 -2.25,0 0,11.25 2.25,0 0,-4.5 6.75,0 0,4.5 2.25,0 0,-11.25 z"
         style="font-size:18px;font-variant:normal;font-weight:200;font-stretch:normal;font-family:'04b08';-inkscape-font-specification:'04b08 Ultra-Light';fill:#353535;fill-opacity:1"
         id="path4041" />
      <path
         d="m 354.7498,960.39355 2.25,0 0,-2.25 -6.75,0 0,2.25 2.25,0 0,6.75 -2.25,0 0,2.25 6.75,0 0,-2.25 -2.25,0 z"
         style="font-size:18px;font-variant:normal;font-weight:200;font-stretch:normal;font-family:'04b08';-inkscape-font-specification:'04b08 Ultra-Light';fill:#353535;fill-opacity:1"
         id="path4043" />
      <path
         d="m 370.4998,960.39355 0,-2.25 -11.25,0 0,6.75 9,0 0,2.25 -9,0 0,2.25 11.25,0 0,-6.75 -9,0 0,-2.25 z"
         style="font-size:18px;font-variant:normal;font-weight:200;font-stretch:normal;font-family:'04b08';-inkscape-font-specification:'04b08 Ultra-Light';fill:#353535;fill-opacity:1"
         id="path4045" />
      <path
         d="m 372.7498,958.14355 0,2.25 4.5,0 0,9 2.25,0 0,-9 4.5,0 0,-2.25 z"
         style="font-size:18px;font-variant:normal;font-weight:200;font-stretch:normal;font-family:'04b08';-inkscape-font-specification:'04b08 Ultra-Light';fill:#353535;fill-opacity:1"
         id="path4047" />
      <path
         d="m 397.4998,964.89355 0,-2.25 -11.25,0 0,2.25 z"
         style="font-size:18px;font-variant:normal;font-weight:200;font-stretch:normal;font-family:'04b08';-inkscape-font-specification:'04b08 Ultra-Light';fill:#353535;fill-opacity:1"
         id="path4049" />
      <path
         d="m 408.7498,967.12872 0,-2.23517 -6.75,0 0,2.23517 z m 0,-6.72033 -6.75,0 0,2.23516 6.75,0 z m 2.25,-0.0148 0,6.75 -2.25,0 0,2.25 -9,0 0,-11.25 9,0 0,2.25 z"
         style="font-size:18px;font-variant:normal;font-weight:200;font-stretch:normal;font-family:'04b08';-inkscape-font-specification:'04b08 Ultra-Light';fill:#353535;fill-opacity:1"
         id="path4051" />
      <path
         d="m 413.2498,958.14355 0,11.25 11.25,0 0,-11.25 z m 9,9 -6.75,0 0,-6.75 6.75,0 z"
         style="font-size:18px;font-variant:normal;font-weight:200;font-stretch:normal;font-family:'04b08';-inkscape-font-specification:'04b08 Ultra-Light';fill:#353535;fill-opacity:1"
         id="path4053" />
      <path
         d="m 435.7498,969.39355 2.25,0 0,-11.25 -11.25,0 0,11.25 2.25,0 0,-4.5 6.75,0 z m -6.75,-6.75 0,-2.25 6.75,0 0,2.25 z"
         style="font-size:18px;font-variant:normal;font-weight:200;font-stretch:normal;font-family:'04b08';-inkscape-font-specification:'04b08 Ultra-Light';fill:#353535;fill-opacity:1"
         id="path4055" />
      <path
         d="m 440.2498,958.14355 0,11.25 2.25,0 0,-4.5 4.5,0 0,4.5 4.5,0 0,-2.25 -2.25,0 0,-2.25 2.25,0 0,-6.75 z m 9,4.5 -6.75,0 0,-2.25 6.75,0 z"
         style="font-size:18px;font-variant:normal;font-weight:200;font-stretch:normal;font-family:'04b08';-inkscape-font-specification:'04b08 Ultra-Light';fill:#353535;fill-opacity:1"
         id="path4057" />
      <path
         d="m 462.7498,960.39355 2.25,0 0,6.75 -2.25,0 0,2.25 -9,0 0,-11.25 9,0 z m -6.75,6.73517 6.75,0 0,-6.72033 -6.75,0 z"
         style="font-size:18px;font-variant:normal;font-weight:200;font-stretch:normal;font-family:'04b08';-inkscape-font-specification:'04b08 Ultra-Light';fill:#353535;fill-opacity:1"
         id="path4059" />
    </g>
    <g
       style="font-size:40px;font-style:normal;font-weight:normal;line-height:125%;letter-spacing:0px;word-spacing:0px;fill:#353535;fill-opacity:1;stroke:none;font-family:Sans"
       id="text3992">
      <path
         d="m 226.03551,1002.6321 0,-1.7385 -5.25,0 0,1.7385 z m 0,-5.22695 -5.25,0 0,1.73847 5.25,0 z m 1.75,-0.0115 0,5.24998 -1.75,0 0,1.75 -7,0 0,-8.74998 7,0 0,1.75 z"
         style="font-size:14px;font-variant:normal;font-weight:200;font-stretch:normal;fill:#353535;font-family:'04b08';-inkscape-font-specification:'04b08 Ultra-Light';fill-opacity:1"
         id="path4062" />
      <path
         d="m 231.28551,995.64362 -1.75,0 0,3.5 1.75,0 z m 5.25,0 0,3.5 1.75,0 0,-3.5 z m -5.25,3.5 0,1.74998 1.75,0 0,-1.74998 z m 3.5,1.74998 1.75,0 0,-1.74998 -1.75,0 z m -1.75,3.5 1.75,0 0,-3.5 -1.75,0 z"
         style="font-size:14px;font-variant:normal;font-weight:200;font-stretch:normal;fill:#353535;font-family:'04b08';-inkscape-font-specification:'04b08 Ultra-Light';fill-opacity:1"
         id="path4064" />
      <path
         d="m 248.78551,1002.6436 0,-6.99998 -1.75,0 0,8.74998 8.75,0 0,-1.75 z"
         style="font-size:14px;font-variant:normal;font-weight:200;font-stretch:normal;fill:#353535;font-family:'04b08';-inkscape-font-specification:'04b08 Ultra-Light';fill-opacity:1"
         id="path4066" />
      <path
         d="m 257.53551,995.64362 0,8.74998 8.75,0 0,-8.74998 z m 7,6.99998 -5.25,0 0,-5.24998 5.25,0 z"
         style="font-size:14px;font-variant:normal;font-weight:200;font-stretch:normal;fill:#353535;font-family:'04b08';-inkscape-font-specification:'04b08 Ultra-Light';fill-opacity:1"
         id="path4068" />
      <path
         d="m 276.78551,997.39362 0,-1.75 -8.75,0 0,5.24998 7,0 0,1.75 -7,0 0,1.75 8.75,0 0,-5.24998 -7,0 0,-1.75 z"
         style="font-size:14px;font-variant:normal;font-weight:200;font-stretch:normal;fill:#353535;font-family:'04b08';-inkscape-font-specification:'04b08 Ultra-Light';fill-opacity:1"
         id="path4070" />
      <path
         d="m 287.28551,997.39362 0,-1.75 -8.75,0 0,5.24998 7,0 0,1.75 -7,0 0,1.75 8.75,0 0,-5.24998 -7,0 0,-1.75 z"
         style="font-size:14px;font-variant:normal;font-weight:200;font-stretch:normal;fill:#353535;font-family:'04b08';-inkscape-font-specification:'04b08 Ultra-Light';fill-opacity:1"
         id="path4072" />
      <path
         d="m 297.78551,997.39362 0,-1.75 -8.75,0 0,8.74998 8.75,0 0,-1.75 -7,0 0,-1.75 7,0 0,-1.74998 -7,0 0,-1.75 z"
         style="font-size:14px;font-variant:normal;font-weight:200;font-stretch:normal;fill:#353535;font-family:'04b08';-inkscape-font-specification:'04b08 Ultra-Light';fill-opacity:1"
         id="path4074" />
      <path
         d="m 308.28551,997.39362 0,-1.75 -8.75,0 0,5.24998 7,0 0,1.75 -7,0 0,1.75 8.75,0 0,-5.24998 -7,0 0,-1.75 z"
         style="font-size:14px;font-variant:normal;font-weight:200;font-stretch:normal;fill:#353535;font-family:'04b08';-inkscape-font-specification:'04b08 Ultra-Light';fill-opacity:1"
         id="path4076" />
      <path
         d="m 324.03551,997.39362 1.75,0 0,5.24998 -1.75,0 0,1.75 -7,0 0,-8.74998 7,0 z m -5.25,5.23848 5.25,0 0,-5.22695 -5.25,0 z"
         style="font-size:14px;font-variant:normal;font-weight:200;font-stretch:normal;fill:#353535;font-family:'04b08';-inkscape-font-specification:'04b08 Ultra-Light';fill-opacity:1"
         id="path4078" />
      <path
         d="m 327.53551,995.64362 0,8.74998 8.75,0 0,-8.74998 z m 7,6.99998 -5.25,0 0,-5.24998 5.25,0 z"
         style="font-size:14px;font-variant:normal;font-weight:200;font-stretch:normal;fill:#353535;font-family:'04b08';-inkscape-font-specification:'04b08 Ultra-Light';fill-opacity:1"
         id="path4080" />
      <path
         d="m 339.78551,997.39362 0,-1.75 -1.75,0 0,8.74998 1.75,0 0,-5.24998 1.75,0 0,-1.75 z m 5.25,-1.75 0,5.24998 -1.75,0 0,1.75 1.75,0 0,1.75 1.75,0 0,-8.74998 z m -3.5,3.5 0,1.74998 1.75,0 0,-1.74998 z"
         style="font-size:14px;font-variant:normal;font-weight:200;font-stretch:normal;fill:#353535;font-family:'04b08';-inkscape-font-specification:'04b08 Ultra-Light';fill-opacity:1"
         id="path4082" />
    </g>
  </g>
</svg>
